<svg width="654" height="191" viewBox="0 0 654 191" fill="none" xmlns="http://www.w3.org/2000/svg">
<path fill-rule="evenodd" clip-rule="evenodd" d="M106 52.7461C97.1634 52.7461 90 59.9095 90 68.7461C90 77.5826 97.1634 84.7461 106 84.7461C114.837 84.7461 122 77.5826 122 68.7461C122 59.9095 114.837 52.7461 106 52.7461ZM74.7164 83.873C91.3715 83.873 104.873 97.3747 104.873 114.03V138.746H89.8731V114.03C89.8731 112.256 89.5685 110.554 89.0086 108.972L66.9757 131.005L56.3691 120.398L77.6168 99.1502C76.678 98.9683 75.7083 98.873 74.7164 98.873H50V83.873H74.7164ZM137.657 83.873C121.002 83.873 107.5 97.3747 107.5 114.03V138.746H122.5V114.03C122.5 112.64 122.687 111.295 123.037 110.016L146.085 133.064L156.692 122.458L133.644 99.4099C134.922 99.0599 136.268 98.873 137.657 98.873H162.373V83.873H137.657Z" fill="black"/>
<path d="M186.373 139.611V53.3925H210.791L236.971 127.276H238.859V53.3925H252.83V139.611H228.916L202.106 65.6015H200.344V139.611H186.373Z" fill="black"/>
<path d="M308.801 128.283L312.325 127.905L312.577 138.1C303.011 140.03 294.536 140.995 287.152 140.995C277.838 140.995 271.125 138.436 267.014 133.317C262.986 128.199 260.972 120.017 260.972 108.773C260.972 86.4532 270.076 75.2931 288.285 75.2931C305.906 75.2931 314.717 84.9009 314.717 104.116L313.836 113.934H274.817C274.901 119.136 276.034 122.954 278.216 125.388C280.397 127.821 284.467 129.038 290.425 129.038C296.382 129.038 302.508 128.786 308.801 128.283ZM301.249 103.361C301.249 97.1518 300.242 92.8304 298.228 90.397C296.299 87.8797 292.984 86.6211 288.285 86.6211C283.586 86.6211 280.146 87.9217 277.964 90.5229C275.866 93.1241 274.775 97.4036 274.692 103.361H301.249Z" fill="black"/>
<path d="M355.474 88.3832H338.104V116.074C338.104 121.192 338.482 124.591 339.237 126.269C339.992 127.947 341.922 128.786 345.027 128.786L355.348 128.409L355.977 139.359C350.355 140.45 346.076 140.995 343.139 140.995C336.007 140.995 331.098 139.359 328.413 136.086C325.811 132.814 324.511 126.646 324.511 117.584V88.3832H316.455V76.6777H324.511V58.4271H338.104V76.6777H355.474V88.3832Z" fill="black"/>
<path d="M355.524 76.6777H368.992L378.935 127.905H381.452L393.41 77.9363H407.507L419.464 127.905H421.981L431.799 76.6777H445.392L432.05 139.611H410.276L400.458 96.4386L390.641 139.611H368.866L355.524 76.6777Z" fill="black"/>
<path d="M454.15 83.4744C458.513 78.0202 465.729 75.2931 475.799 75.2931C485.868 75.2931 493.042 78.0202 497.322 83.4744C501.685 88.9286 503.867 97.1099 503.867 108.018C503.867 118.927 501.769 127.15 497.573 132.688C493.378 138.226 486.12 140.995 475.799 140.995C465.478 140.995 458.219 138.226 454.024 132.688C449.828 127.15 447.731 118.927 447.731 108.018C447.731 97.1099 449.87 88.9286 454.15 83.4744ZM464.471 124.381C466.401 127.737 470.177 129.415 475.799 129.415C481.421 129.415 485.197 127.737 487.127 124.381C489.057 121.024 490.022 115.528 490.022 107.892C490.022 100.257 488.973 94.8443 486.875 91.6557C484.861 88.4671 481.169 86.8728 475.799 86.8728C470.428 86.8728 466.694 88.4671 464.597 91.6557C462.583 94.8443 461.576 100.257 461.576 107.892C461.576 115.528 462.541 121.024 464.471 124.381Z" fill="black"/>
<path d="M511.201 139.611V76.6777H524.795V84.2296C531.927 79.6145 539.06 76.6357 546.192 75.2931V89.0125C538.976 90.439 532.808 92.285 527.69 94.5506L524.921 95.6834V139.611H511.201Z" fill="black"/>
<path d="M564.106 139.611H550.387V50.4976H564.106V101.977L571.91 101.222L586.762 76.6777H602.118L583.993 106.13L603.125 139.611H587.643L572.288 113.053L564.106 113.934V139.611Z" fill="black"/>
</svg>
