<svg width="654" height="191" viewBox="0 0 654 191" fill="none" xmlns="http://www.w3.org/2000/svg">
<path fill-rule="evenodd" clip-rule="evenodd" d="M106 52.2485C97.1634 52.2485 90 59.412 90 68.2485C90 77.0851 97.1634 84.2485 106 84.2485C114.837 84.2485 122 77.0851 122 68.2485C122 59.412 114.837 52.2485 106 52.2485ZM74.7164 83.3755C91.3715 83.3755 104.873 96.8771 104.873 113.532V138.249H89.8731V113.532C89.8731 111.758 89.5685 110.056 89.0086 108.474L66.9757 130.507L56.3691 119.9L77.6168 98.6527C76.678 98.4708 75.7083 98.3755 74.7164 98.3755H50V83.3755H74.7164ZM137.657 83.3755C121.002 83.3755 107.5 96.8771 107.5 113.532V138.249H122.5V113.532C122.5 112.143 122.687 110.797 123.037 109.519L146.085 132.567L156.692 121.96L133.644 98.9124C134.922 98.5624 136.268 98.3755 137.657 98.3755H162.373V83.3755H137.657Z" fill="#0050FF"/>
<path d="M186.373 139.113V52.8949H210.791L236.971 126.778H238.859V52.8949H252.83V139.113H228.916L202.106 65.1039H200.344V139.113H186.373Z" fill="#0C284F"/>
<path d="M308.801 127.785L312.325 127.408L312.577 137.603C303.011 139.533 294.536 140.498 287.152 140.498C277.838 140.498 271.125 137.938 267.014 132.82C262.986 127.701 260.972 119.52 260.972 108.276C260.972 85.9557 270.076 74.7956 288.285 74.7956C305.906 74.7956 314.717 84.4033 314.717 103.619L313.836 113.436H274.817C274.901 118.639 276.034 122.457 278.216 124.89C280.397 127.324 284.467 128.54 290.425 128.54C296.382 128.54 302.508 128.289 308.801 127.785ZM301.249 102.864C301.249 96.6543 300.242 92.3329 298.228 89.8995C296.299 87.3822 292.984 86.1235 288.285 86.1235C283.586 86.1235 280.146 87.4241 277.964 90.0253C275.866 92.6266 274.775 96.906 274.692 102.864H301.249Z" fill="#0C284F"/>
<path d="M355.474 87.8856H338.104V115.576C338.104 120.695 338.482 124.093 339.237 125.771C339.992 127.449 341.922 128.289 345.027 128.289L355.348 127.911L355.977 138.861C350.355 139.952 346.076 140.498 343.139 140.498C336.007 140.498 331.098 138.861 328.413 135.589C325.811 132.316 324.511 126.149 324.511 117.087V87.8856H316.455V76.1801H324.511V57.9295H338.104V76.1801H355.474V87.8856Z" fill="#0C284F"/>
<path d="M355.524 76.1801H368.992L378.935 127.408H381.452L393.41 77.4388H407.507L419.464 127.408H421.981L431.799 76.1801H445.392L432.05 139.113H410.276L400.458 95.941L390.641 139.113H368.866L355.524 76.1801Z" fill="#0C284F"/>
<path d="M454.15 82.9769C458.513 77.5227 465.729 74.7956 475.799 74.7956C485.868 74.7956 493.042 77.5227 497.322 82.9769C501.685 88.431 503.867 96.6123 503.867 107.521C503.867 118.429 501.769 126.652 497.573 132.19C493.378 137.729 486.12 140.498 475.799 140.498C465.478 140.498 458.219 137.729 454.024 132.19C449.828 126.652 447.731 118.429 447.731 107.521C447.731 96.6123 449.87 88.431 454.15 82.9769ZM464.471 123.883C466.401 127.24 470.177 128.918 475.799 128.918C481.421 128.918 485.197 127.24 487.127 123.883C489.057 120.527 490.022 115.031 490.022 107.395C490.022 99.759 488.973 94.3467 486.875 91.1581C484.861 87.9695 481.169 86.3752 475.799 86.3752C470.428 86.3752 466.694 87.9695 464.597 91.1581C462.583 94.3467 461.576 99.759 461.576 107.395C461.576 115.031 462.541 120.527 464.471 123.883Z" fill="#0C284F"/>
<path d="M511.201 139.113V76.1801H524.795V83.7321C531.927 79.117 539.06 76.1381 546.192 74.7956V88.515C538.976 89.9414 532.808 91.7875 527.69 94.0531L524.921 95.1858V139.113H511.201Z" fill="#0C284F"/>
<path d="M564.106 139.113H550.387V50H564.106V101.479L571.91 100.724L586.762 76.1801H602.118L583.993 105.633L603.125 139.113H587.643L572.288 112.555L564.106 113.436V139.113Z" fill="#0C284F"/>
</svg>
